<mxfile host="app.diagrams.net" modified="2024-03-15T10:15:32.498Z" agent="Mozilla/5.0 (Windows NT 10.0; Win64; x64) AppleWebKit/537.36 (KHTML, like Gecko) Chrome/122.0.0.0 Safari/537.36" etag="iX9juccHIXYZi8Iv0Vdn" scale="1" border="0" version="24.0.2" type="device">
  <diagram id="C5RBs43oDa-KdzZeNtuy" name="Page-1">
    <mxGraphModel dx="2117" dy="1707" grid="1" gridSize="10" guides="1" tooltips="1" connect="1" arrows="1" fold="1" page="1" pageScale="1" pageWidth="827" pageHeight="1169" math="0" shadow="0">
      <root>
        <mxCell id="WIyWlLk6GJQsqaUBKTNV-0" />
        <mxCell id="WIyWlLk6GJQsqaUBKTNV-1" parent="WIyWlLk6GJQsqaUBKTNV-0" />
        <mxCell id="EM0cH5G3586m-RhXcjUr-0" value="Calciatore" style="swimlane;fontStyle=0;childLayout=stackLayout;horizontal=1;startSize=30;horizontalStack=0;resizeParent=1;resizeParentMax=0;resizeLast=0;collapsible=1;marginBottom=0;whiteSpace=wrap;html=1;" parent="WIyWlLk6GJQsqaUBKTNV-1" vertex="1">
          <mxGeometry x="-150" y="-30" width="150" height="240" as="geometry" />
        </mxCell>
        <mxCell id="jauZWxo5Ra5YD5kyznOw-40" value="PK idCalciatore : int" style="text;strokeColor=none;fillColor=none;align=left;verticalAlign=middle;spacingLeft=4;spacingRight=4;overflow=hidden;points=[[0,0.5],[1,0.5]];portConstraint=eastwest;rotatable=0;whiteSpace=wrap;html=1;" parent="EM0cH5G3586m-RhXcjUr-0" vertex="1">
          <mxGeometry y="30" width="150" height="30" as="geometry" />
        </mxCell>
        <mxCell id="M8oh72dw6ffc5ow3yLrb-0" value="Nome : String" style="text;strokeColor=none;fillColor=none;align=left;verticalAlign=middle;spacingLeft=4;spacingRight=4;overflow=hidden;points=[[0,0.5],[1,0.5]];portConstraint=eastwest;rotatable=0;whiteSpace=wrap;html=1;" parent="EM0cH5G3586m-RhXcjUr-0" vertex="1">
          <mxGeometry y="60" width="150" height="30" as="geometry" />
        </mxCell>
        <mxCell id="EM0cH5G3586m-RhXcjUr-2" value="Cognome : String" style="text;strokeColor=none;fillColor=none;align=left;verticalAlign=middle;spacingLeft=4;spacingRight=4;overflow=hidden;points=[[0,0.5],[1,0.5]];portConstraint=eastwest;rotatable=0;whiteSpace=wrap;html=1;" parent="EM0cH5G3586m-RhXcjUr-0" vertex="1">
          <mxGeometry y="90" width="150" height="30" as="geometry" />
        </mxCell>
        <mxCell id="EM0cH5G3586m-RhXcjUr-3" value="Piede : Varchar (10)" style="text;strokeColor=none;fillColor=none;align=left;verticalAlign=middle;spacingLeft=4;spacingRight=4;overflow=hidden;points=[[0,0.5],[1,0.5]];portConstraint=eastwest;rotatable=0;whiteSpace=wrap;html=1;" parent="EM0cH5G3586m-RhXcjUr-0" vertex="1">
          <mxGeometry y="120" width="150" height="30" as="geometry" />
        </mxCell>
        <mxCell id="EM0cH5G3586m-RhXcjUr-19" value="Data_Nascita : Date" style="text;strokeColor=none;fillColor=none;align=left;verticalAlign=middle;spacingLeft=4;spacingRight=4;overflow=hidden;points=[[0,0.5],[1,0.5]];portConstraint=eastwest;rotatable=0;whiteSpace=wrap;html=1;" parent="EM0cH5G3586m-RhXcjUr-0" vertex="1">
          <mxGeometry y="150" width="150" height="30" as="geometry" />
        </mxCell>
        <mxCell id="EM0cH5G3586m-RhXcjUr-68" value="Data_Ritiro [0...1] : Date" style="text;strokeColor=none;fillColor=none;align=left;verticalAlign=middle;spacingLeft=4;spacingRight=4;overflow=hidden;points=[[0,0.5],[1,0.5]];portConstraint=eastwest;rotatable=0;whiteSpace=wrap;html=1;" parent="EM0cH5G3586m-RhXcjUr-0" vertex="1">
          <mxGeometry y="180" width="150" height="30" as="geometry" />
        </mxCell>
        <mxCell id="0oiI7NU0yHvSQ_45RacB-4" value="Sesso : Char(1)" style="text;strokeColor=none;fillColor=none;align=left;verticalAlign=middle;spacingLeft=4;spacingRight=4;overflow=hidden;points=[[0,0.5],[1,0.5]];portConstraint=eastwest;rotatable=0;whiteSpace=wrap;html=1;" parent="EM0cH5G3586m-RhXcjUr-0" vertex="1">
          <mxGeometry y="210" width="150" height="30" as="geometry" />
        </mxCell>
        <mxCell id="EM0cH5G3586m-RhXcjUr-4" value="Militanza" style="swimlane;fontStyle=0;childLayout=stackLayout;horizontal=1;startSize=30;horizontalStack=0;resizeParent=1;resizeParentMax=0;resizeLast=0;collapsible=1;marginBottom=0;whiteSpace=wrap;html=1;" parent="WIyWlLk6GJQsqaUBKTNV-1" vertex="1">
          <mxGeometry x="40" y="270" width="140" height="180" as="geometry" />
        </mxCell>
        <mxCell id="jauZWxo5Ra5YD5kyznOw-0" value="DataInizio : Date" style="text;strokeColor=none;fillColor=none;align=left;verticalAlign=middle;spacingLeft=4;spacingRight=4;overflow=hidden;points=[[0,0.5],[1,0.5]];portConstraint=eastwest;rotatable=0;whiteSpace=wrap;html=1;" parent="EM0cH5G3586m-RhXcjUr-4" vertex="1">
          <mxGeometry y="30" width="140" height="30" as="geometry" />
        </mxCell>
        <mxCell id="jauZWxo5Ra5YD5kyznOw-1" value="DataFine [0...1] : Date" style="text;strokeColor=none;fillColor=none;align=left;verticalAlign=middle;spacingLeft=4;spacingRight=4;overflow=hidden;points=[[0,0.5],[1,0.5]];portConstraint=eastwest;rotatable=0;whiteSpace=wrap;html=1;" parent="EM0cH5G3586m-RhXcjUr-4" vertex="1">
          <mxGeometry y="60" width="140" height="30" as="geometry" />
        </mxCell>
        <mxCell id="EM0cH5G3586m-RhXcjUr-5" value="GolSegnati : int" style="text;strokeColor=none;fillColor=none;align=left;verticalAlign=middle;spacingLeft=4;spacingRight=4;overflow=hidden;points=[[0,0.5],[1,0.5]];portConstraint=eastwest;rotatable=0;whiteSpace=wrap;html=1;" parent="EM0cH5G3586m-RhXcjUr-4" vertex="1">
          <mxGeometry y="90" width="140" height="30" as="geometry" />
        </mxCell>
        <mxCell id="EM0cH5G3586m-RhXcjUr-6" value="GolSubiti [0...1] : int" style="text;strokeColor=none;fillColor=none;align=left;verticalAlign=middle;spacingLeft=4;spacingRight=4;overflow=hidden;points=[[0,0.5],[1,0.5]];portConstraint=eastwest;rotatable=0;whiteSpace=wrap;html=1;" parent="EM0cH5G3586m-RhXcjUr-4" vertex="1">
          <mxGeometry y="120" width="140" height="30" as="geometry" />
        </mxCell>
        <mxCell id="EM0cH5G3586m-RhXcjUr-7" value="PartiteGiocate : int" style="text;strokeColor=none;fillColor=none;align=left;verticalAlign=middle;spacingLeft=4;spacingRight=4;overflow=hidden;points=[[0,0.5],[1,0.5]];portConstraint=eastwest;rotatable=0;whiteSpace=wrap;html=1;" parent="EM0cH5G3586m-RhXcjUr-4" vertex="1">
          <mxGeometry y="150" width="140" height="30" as="geometry" />
        </mxCell>
        <mxCell id="EM0cH5G3586m-RhXcjUr-8" value="TrofeoCalciatore" style="swimlane;fontStyle=0;childLayout=stackLayout;horizontal=1;startSize=30;horizontalStack=0;resizeParent=1;resizeParentMax=0;resizeLast=0;collapsible=1;marginBottom=0;whiteSpace=wrap;html=1;" parent="WIyWlLk6GJQsqaUBKTNV-1" vertex="1">
          <mxGeometry x="240" y="60" width="140" height="120" as="geometry" />
        </mxCell>
        <mxCell id="EM0cH5G3586m-RhXcjUr-9" value="PK Nome : String" style="text;strokeColor=none;fillColor=none;align=left;verticalAlign=middle;spacingLeft=4;spacingRight=4;overflow=hidden;points=[[0,0.5],[1,0.5]];portConstraint=eastwest;rotatable=0;whiteSpace=wrap;html=1;" parent="EM0cH5G3586m-RhXcjUr-8" vertex="1">
          <mxGeometry y="30" width="140" height="30" as="geometry" />
        </mxCell>
        <mxCell id="EM0cH5G3586m-RhXcjUr-10" value="Descrizione : String" style="text;strokeColor=none;fillColor=none;align=left;verticalAlign=middle;spacingLeft=4;spacingRight=4;overflow=hidden;points=[[0,0.5],[1,0.5]];portConstraint=eastwest;rotatable=0;whiteSpace=wrap;html=1;" parent="EM0cH5G3586m-RhXcjUr-8" vertex="1">
          <mxGeometry y="60" width="140" height="30" as="geometry" />
        </mxCell>
        <mxCell id="0oiI7NU0yHvSQ_45RacB-3" value="Categoria: Char(1)" style="text;strokeColor=none;fillColor=none;align=left;verticalAlign=middle;spacingLeft=4;spacingRight=4;overflow=hidden;points=[[0,0.5],[1,0.5]];portConstraint=eastwest;rotatable=0;whiteSpace=wrap;html=1;" parent="EM0cH5G3586m-RhXcjUr-8" vertex="1">
          <mxGeometry y="90" width="140" height="30" as="geometry" />
        </mxCell>
        <mxCell id="EM0cH5G3586m-RhXcjUr-12" value="VinceCalciatore" style="swimlane;fontStyle=0;childLayout=stackLayout;horizontal=1;startSize=30;horizontalStack=0;resizeParent=1;resizeParentMax=0;resizeLast=0;collapsible=1;marginBottom=0;whiteSpace=wrap;html=1;" parent="WIyWlLk6GJQsqaUBKTNV-1" vertex="1">
          <mxGeometry x="60" y="-20" width="140" height="60" as="geometry">
            <mxRectangle x="60" y="-20" width="70" height="30" as="alternateBounds" />
          </mxGeometry>
        </mxCell>
        <mxCell id="EM0cH5G3586m-RhXcjUr-14" value="Stagione : Varchar (9)" style="text;strokeColor=none;fillColor=none;align=left;verticalAlign=middle;spacingLeft=4;spacingRight=4;overflow=hidden;points=[[0,0.5],[1,0.5]];portConstraint=eastwest;rotatable=0;whiteSpace=wrap;html=1;" parent="EM0cH5G3586m-RhXcjUr-12" vertex="1">
          <mxGeometry y="30" width="140" height="30" as="geometry" />
        </mxCell>
        <mxCell id="EM0cH5G3586m-RhXcjUr-16" value="Competizione" style="swimlane;fontStyle=0;childLayout=stackLayout;horizontal=1;startSize=30;horizontalStack=0;resizeParent=1;resizeParentMax=0;resizeLast=0;collapsible=1;marginBottom=0;whiteSpace=wrap;html=1;" parent="WIyWlLk6GJQsqaUBKTNV-1" vertex="1">
          <mxGeometry x="-540" y="548" width="140" height="120" as="geometry" />
        </mxCell>
        <mxCell id="EM0cH5G3586m-RhXcjUr-18" value="PK Nome : String" style="text;strokeColor=none;fillColor=none;align=left;verticalAlign=middle;spacingLeft=4;spacingRight=4;overflow=hidden;points=[[0,0.5],[1,0.5]];portConstraint=eastwest;rotatable=0;whiteSpace=wrap;html=1;" parent="EM0cH5G3586m-RhXcjUr-16" vertex="1">
          <mxGeometry y="30" width="140" height="30" as="geometry" />
        </mxCell>
        <mxCell id="0oiI7NU0yHvSQ_45RacB-2" value="Categoria : Char(1)" style="text;strokeColor=none;fillColor=none;align=left;verticalAlign=middle;spacingLeft=4;spacingRight=4;overflow=hidden;points=[[0,0.5],[1,0.5]];portConstraint=eastwest;rotatable=0;whiteSpace=wrap;html=1;" parent="EM0cH5G3586m-RhXcjUr-16" vertex="1">
          <mxGeometry y="60" width="140" height="30" as="geometry" />
        </mxCell>
        <mxCell id="JAPTARflrPmtZ6mYMgTw-0" value="Descrizione : String" style="text;strokeColor=none;fillColor=none;align=left;verticalAlign=middle;spacingLeft=4;spacingRight=4;overflow=hidden;points=[[0,0.5],[1,0.5]];portConstraint=eastwest;rotatable=0;whiteSpace=wrap;html=1;" parent="EM0cH5G3586m-RhXcjUr-16" vertex="1">
          <mxGeometry y="90" width="140" height="30" as="geometry" />
        </mxCell>
        <mxCell id="EM0cH5G3586m-RhXcjUr-20" value="Squadra" style="swimlane;fontStyle=0;childLayout=stackLayout;horizontal=1;startSize=30;horizontalStack=0;resizeParent=1;resizeParentMax=0;resizeLast=0;collapsible=1;marginBottom=0;whiteSpace=wrap;html=1;" parent="WIyWlLk6GJQsqaUBKTNV-1" vertex="1">
          <mxGeometry x="-160" y="510" width="160" height="160" as="geometry" />
        </mxCell>
        <mxCell id="jauZWxo5Ra5YD5kyznOw-41" value="PK idSquadra : int&amp;nbsp;" style="text;strokeColor=none;fillColor=none;align=left;verticalAlign=middle;spacingLeft=4;spacingRight=4;overflow=hidden;points=[[0,0.5],[1,0.5]];portConstraint=eastwest;rotatable=0;whiteSpace=wrap;html=1;" parent="EM0cH5G3586m-RhXcjUr-20" vertex="1">
          <mxGeometry y="30" width="160" height="30" as="geometry" />
        </mxCell>
        <mxCell id="EM0cH5G3586m-RhXcjUr-21" value="Nome : String" style="text;strokeColor=none;fillColor=none;align=left;verticalAlign=middle;spacingLeft=4;spacingRight=4;overflow=hidden;points=[[0,0.5],[1,0.5]];portConstraint=eastwest;rotatable=0;whiteSpace=wrap;html=1;" parent="EM0cH5G3586m-RhXcjUr-20" vertex="1">
          <mxGeometry y="60" width="160" height="30" as="geometry" />
        </mxCell>
        <mxCell id="EM0cH5G3586m-RhXcjUr-23" value="AnnoFondazione : Char(4)" style="text;strokeColor=none;fillColor=none;align=left;verticalAlign=middle;spacingLeft=4;spacingRight=4;overflow=hidden;points=[[0,0.5],[1,0.5]];portConstraint=eastwest;rotatable=0;whiteSpace=wrap;html=1;" parent="EM0cH5G3586m-RhXcjUr-20" vertex="1">
          <mxGeometry y="90" width="160" height="40" as="geometry" />
        </mxCell>
        <mxCell id="0oiI7NU0yHvSQ_45RacB-0" value="Categoria : Char(1)" style="text;strokeColor=none;fillColor=none;align=left;verticalAlign=middle;spacingLeft=4;spacingRight=4;overflow=hidden;points=[[0,0.5],[1,0.5]];portConstraint=eastwest;rotatable=0;whiteSpace=wrap;html=1;" parent="EM0cH5G3586m-RhXcjUr-20" vertex="1">
          <mxGeometry y="130" width="160" height="30" as="geometry" />
        </mxCell>
        <mxCell id="EM0cH5G3586m-RhXcjUr-28" value="Partecipa" style="swimlane;fontStyle=0;childLayout=stackLayout;horizontal=1;startSize=30;horizontalStack=0;resizeParent=1;resizeParentMax=0;resizeLast=0;collapsible=1;marginBottom=0;whiteSpace=wrap;html=1;" parent="WIyWlLk6GJQsqaUBKTNV-1" vertex="1">
          <mxGeometry x="-360" y="670" width="160" height="60" as="geometry" />
        </mxCell>
        <mxCell id="EM0cH5G3586m-RhXcjUr-29" value="Stagione : Varchar (9)" style="text;strokeColor=none;fillColor=none;align=left;verticalAlign=middle;spacingLeft=4;spacingRight=4;overflow=hidden;points=[[0,0.5],[1,0.5]];portConstraint=eastwest;rotatable=0;whiteSpace=wrap;html=1;" parent="EM0cH5G3586m-RhXcjUr-28" vertex="1">
          <mxGeometry y="30" width="160" height="30" as="geometry" />
        </mxCell>
        <mxCell id="EM0cH5G3586m-RhXcjUr-32" value="" style="endArrow=none;html=1;rounded=0;entryX=-0.02;entryY=0.691;entryDx=0;entryDy=0;entryPerimeter=0;exitX=1.014;exitY=-0.02;exitDx=0;exitDy=0;exitPerimeter=0;" parent="WIyWlLk6GJQsqaUBKTNV-1" edge="1">
          <mxGeometry width="50" height="50" relative="1" as="geometry">
            <mxPoint x="-393.90999999999974" y="600.0000000000001" as="sourcePoint" />
            <mxPoint x="-160.00000000000017" y="600.5999999999996" as="targetPoint" />
          </mxGeometry>
        </mxCell>
        <mxCell id="EM0cH5G3586m-RhXcjUr-58" value="1...*" style="edgeLabel;html=1;align=center;verticalAlign=middle;resizable=0;points=[];fontSize=13;" parent="EM0cH5G3586m-RhXcjUr-32" vertex="1" connectable="0">
          <mxGeometry x="-0.8415" y="1" relative="1" as="geometry">
            <mxPoint as="offset" />
          </mxGeometry>
        </mxCell>
        <mxCell id="EM0cH5G3586m-RhXcjUr-59" value="1...*" style="edgeLabel;html=1;align=center;verticalAlign=middle;resizable=0;points=[];fontSize=13;" parent="EM0cH5G3586m-RhXcjUr-32" vertex="1" connectable="0">
          <mxGeometry x="0.7963" y="2" relative="1" as="geometry">
            <mxPoint as="offset" />
          </mxGeometry>
        </mxCell>
        <mxCell id="EM0cH5G3586m-RhXcjUr-33" value="" style="endArrow=none;html=1;rounded=0;exitX=0.531;exitY=-0.013;exitDx=0;exitDy=0;exitPerimeter=0;" parent="WIyWlLk6GJQsqaUBKTNV-1" source="EM0cH5G3586m-RhXcjUr-20" edge="1">
          <mxGeometry width="50" height="50" relative="1" as="geometry">
            <mxPoint x="-80" y="440" as="sourcePoint" />
            <mxPoint x="-75" y="220" as="targetPoint" />
          </mxGeometry>
        </mxCell>
        <mxCell id="EM0cH5G3586m-RhXcjUr-53" value="1...*" style="edgeLabel;html=1;align=center;verticalAlign=middle;resizable=0;points=[];fontSize=13;" parent="EM0cH5G3586m-RhXcjUr-33" vertex="1" connectable="0">
          <mxGeometry x="0.9286" relative="1" as="geometry">
            <mxPoint as="offset" />
          </mxGeometry>
        </mxCell>
        <mxCell id="EM0cH5G3586m-RhXcjUr-54" value="1...*" style="edgeLabel;html=1;align=center;verticalAlign=middle;resizable=0;points=[];fontSize=13;" parent="EM0cH5G3586m-RhXcjUr-33" vertex="1" connectable="0">
          <mxGeometry x="-0.9" y="2" relative="1" as="geometry">
            <mxPoint as="offset" />
          </mxGeometry>
        </mxCell>
        <mxCell id="EM0cH5G3586m-RhXcjUr-39" value="" style="endArrow=none;dashed=1;html=1;dashPattern=1 3;strokeWidth=2;rounded=0;" parent="WIyWlLk6GJQsqaUBKTNV-1" edge="1">
          <mxGeometry width="50" height="50" relative="1" as="geometry">
            <mxPoint x="-280.42" y="670" as="sourcePoint" />
            <mxPoint x="-280.42" y="600" as="targetPoint" />
          </mxGeometry>
        </mxCell>
        <mxCell id="EM0cH5G3586m-RhXcjUr-40" value="" style="endArrow=none;dashed=1;html=1;dashPattern=1 3;strokeWidth=2;rounded=0;" parent="WIyWlLk6GJQsqaUBKTNV-1" edge="1">
          <mxGeometry width="50" height="50" relative="1" as="geometry">
            <mxPoint x="40" y="370" as="sourcePoint" />
            <mxPoint x="-80" y="369.5" as="targetPoint" />
          </mxGeometry>
        </mxCell>
        <mxCell id="EM0cH5G3586m-RhXcjUr-41" value="" style="endArrow=none;html=1;rounded=0;entryX=0.003;entryY=0.037;entryDx=0;entryDy=0;entryPerimeter=0;" parent="WIyWlLk6GJQsqaUBKTNV-1" target="EM0cH5G3586m-RhXcjUr-10" edge="1">
          <mxGeometry width="50" height="50" relative="1" as="geometry">
            <mxPoint x="-4.51" y="120" as="sourcePoint" />
            <mxPoint x="230" y="120" as="targetPoint" />
            <Array as="points">
              <mxPoint x="185.49" y="120" />
            </Array>
          </mxGeometry>
        </mxCell>
        <mxCell id="EM0cH5G3586m-RhXcjUr-55" value="0...*" style="edgeLabel;html=1;align=center;verticalAlign=middle;resizable=0;points=[];fontSize=13;" parent="EM0cH5G3586m-RhXcjUr-41" vertex="1" connectable="0">
          <mxGeometry x="-0.9117" relative="1" as="geometry">
            <mxPoint as="offset" />
          </mxGeometry>
        </mxCell>
        <mxCell id="EM0cH5G3586m-RhXcjUr-56" value="0...*" style="edgeLabel;html=1;align=center;verticalAlign=middle;resizable=0;points=[];fontSize=13;" parent="EM0cH5G3586m-RhXcjUr-41" vertex="1" connectable="0">
          <mxGeometry x="0.8633" y="-2" relative="1" as="geometry">
            <mxPoint as="offset" />
          </mxGeometry>
        </mxCell>
        <mxCell id="EM0cH5G3586m-RhXcjUr-42" value="" style="endArrow=none;dashed=1;html=1;dashPattern=1 3;strokeWidth=2;rounded=0;entryX=0.507;entryY=1.033;entryDx=0;entryDy=0;entryPerimeter=0;" parent="WIyWlLk6GJQsqaUBKTNV-1" edge="1">
          <mxGeometry width="50" height="50" relative="1" as="geometry">
            <mxPoint x="131" y="120" as="sourcePoint" />
            <mxPoint x="130.98000000000002" y="40.99000000000024" as="targetPoint" />
          </mxGeometry>
        </mxCell>
        <mxCell id="jauZWxo5Ra5YD5kyznOw-2" value="TrofeoCompetizione" style="swimlane;fontStyle=0;childLayout=stackLayout;horizontal=1;startSize=30;horizontalStack=0;resizeParent=1;resizeParentMax=0;resizeLast=0;collapsible=1;marginBottom=0;whiteSpace=wrap;html=1;" parent="WIyWlLk6GJQsqaUBKTNV-1" vertex="1">
          <mxGeometry x="-155" y="790" width="140" height="120" as="geometry" />
        </mxCell>
        <mxCell id="jauZWxo5Ra5YD5kyznOw-3" value="PK Nome : String" style="text;strokeColor=none;fillColor=none;align=left;verticalAlign=middle;spacingLeft=4;spacingRight=4;overflow=hidden;points=[[0,0.5],[1,0.5]];portConstraint=eastwest;rotatable=0;whiteSpace=wrap;html=1;" parent="jauZWxo5Ra5YD5kyznOw-2" vertex="1">
          <mxGeometry y="30" width="140" height="30" as="geometry" />
        </mxCell>
        <mxCell id="jauZWxo5Ra5YD5kyznOw-5" value="Descrizione : String" style="text;strokeColor=none;fillColor=none;align=left;verticalAlign=middle;spacingLeft=4;spacingRight=4;overflow=hidden;points=[[0,0.5],[1,0.5]];portConstraint=eastwest;rotatable=0;whiteSpace=wrap;html=1;" parent="jauZWxo5Ra5YD5kyznOw-2" vertex="1">
          <mxGeometry y="60" width="140" height="30" as="geometry" />
        </mxCell>
        <mxCell id="0oiI7NU0yHvSQ_45RacB-1" value="Categoria : Char(1)" style="text;strokeColor=none;fillColor=none;align=left;verticalAlign=middle;spacingLeft=4;spacingRight=4;overflow=hidden;points=[[0,0.5],[1,0.5]];portConstraint=eastwest;rotatable=0;whiteSpace=wrap;html=1;" parent="jauZWxo5Ra5YD5kyznOw-2" vertex="1">
          <mxGeometry y="90" width="140" height="30" as="geometry" />
        </mxCell>
        <mxCell id="jauZWxo5Ra5YD5kyznOw-6" value="VinceSquadra" style="swimlane;fontStyle=0;childLayout=stackLayout;horizontal=1;startSize=30;horizontalStack=0;resizeParent=1;resizeParentMax=0;resizeLast=0;collapsible=1;marginBottom=0;whiteSpace=wrap;html=1;" parent="WIyWlLk6GJQsqaUBKTNV-1" vertex="1">
          <mxGeometry x="40" y="690" width="140" height="60" as="geometry" />
        </mxCell>
        <mxCell id="jauZWxo5Ra5YD5kyznOw-7" value="Stagione : Varchar (9)" style="text;strokeColor=none;fillColor=none;align=left;verticalAlign=middle;spacingLeft=4;spacingRight=4;overflow=hidden;points=[[0,0.5],[1,0.5]];portConstraint=eastwest;rotatable=0;whiteSpace=wrap;html=1;" parent="jauZWxo5Ra5YD5kyznOw-6" vertex="1">
          <mxGeometry y="30" width="140" height="30" as="geometry" />
        </mxCell>
        <mxCell id="jauZWxo5Ra5YD5kyznOw-10" value="" style="endArrow=none;html=1;rounded=0;entryX=0.533;entryY=0.004;entryDx=0;entryDy=0;entryPerimeter=0;" parent="WIyWlLk6GJQsqaUBKTNV-1" target="jauZWxo5Ra5YD5kyznOw-2" edge="1">
          <mxGeometry width="50" height="50" relative="1" as="geometry">
            <mxPoint x="-80" y="660" as="sourcePoint" />
            <mxPoint x="190" y="700" as="targetPoint" />
          </mxGeometry>
        </mxCell>
        <mxCell id="jauZWxo5Ra5YD5kyznOw-42" value="0...*" style="edgeLabel;html=1;align=center;verticalAlign=middle;resizable=0;points=[];" parent="jauZWxo5Ra5YD5kyznOw-10" vertex="1" connectable="0">
          <mxGeometry x="-0.7812" y="-2" relative="1" as="geometry">
            <mxPoint as="offset" />
          </mxGeometry>
        </mxCell>
        <mxCell id="jauZWxo5Ra5YD5kyznOw-43" value="0...*" style="edgeLabel;html=1;align=center;verticalAlign=middle;resizable=0;points=[];" parent="jauZWxo5Ra5YD5kyznOw-10" vertex="1" connectable="0">
          <mxGeometry x="0.6063" y="1" relative="1" as="geometry">
            <mxPoint as="offset" />
          </mxGeometry>
        </mxCell>
        <mxCell id="jauZWxo5Ra5YD5kyznOw-11" value="" style="endArrow=none;dashed=1;html=1;dashPattern=1 3;strokeWidth=2;rounded=0;exitX=1.014;exitY=-0.011;exitDx=0;exitDy=0;exitPerimeter=0;" parent="WIyWlLk6GJQsqaUBKTNV-1" source="jauZWxo5Ra5YD5kyznOw-7" edge="1">
          <mxGeometry width="50" height="50" relative="1" as="geometry">
            <mxPoint x="-340" y="720" as="sourcePoint" />
            <mxPoint x="-80" y="720" as="targetPoint" />
          </mxGeometry>
        </mxCell>
        <mxCell id="jauZWxo5Ra5YD5kyznOw-15" value="" style="endArrow=none;html=1;rounded=0;" parent="WIyWlLk6GJQsqaUBKTNV-1" edge="1">
          <mxGeometry width="50" height="50" relative="1" as="geometry">
            <mxPoint x="-500" y="830" as="sourcePoint" />
            <mxPoint x="-500" y="670" as="targetPoint" />
            <Array as="points" />
          </mxGeometry>
        </mxCell>
        <mxCell id="jauZWxo5Ra5YD5kyznOw-20" value="&lt;font style=&quot;font-size: 14px;&quot;&gt;1&lt;/font&gt;" style="edgeLabel;html=1;align=center;verticalAlign=middle;resizable=0;points=[];" parent="jauZWxo5Ra5YD5kyznOw-15" vertex="1" connectable="0">
          <mxGeometry x="0.878" y="-2" relative="1" as="geometry">
            <mxPoint as="offset" />
          </mxGeometry>
        </mxCell>
        <mxCell id="jauZWxo5Ra5YD5kyznOw-22" value="Ruolo" style="swimlane;fontStyle=0;childLayout=stackLayout;horizontal=1;startSize=30;horizontalStack=0;resizeParent=1;resizeParentMax=0;resizeLast=0;collapsible=1;marginBottom=0;whiteSpace=wrap;html=1;" parent="WIyWlLk6GJQsqaUBKTNV-1" vertex="1">
          <mxGeometry x="-350" y="-140" width="140" height="80" as="geometry" />
        </mxCell>
        <mxCell id="jauZWxo5Ra5YD5kyznOw-24" value="PK Posizione : String" style="text;strokeColor=none;fillColor=none;align=left;verticalAlign=middle;spacingLeft=4;spacingRight=4;overflow=hidden;points=[[0,0.5],[1,0.5]];portConstraint=eastwest;rotatable=0;whiteSpace=wrap;html=1;" parent="jauZWxo5Ra5YD5kyznOw-22" vertex="1">
          <mxGeometry y="30" width="140" height="20" as="geometry" />
        </mxCell>
        <mxCell id="jauZWxo5Ra5YD5kyznOw-23" value="Descrizione : String" style="text;strokeColor=none;fillColor=none;align=left;verticalAlign=middle;spacingLeft=4;spacingRight=4;overflow=hidden;points=[[0,0.5],[1,0.5]];portConstraint=eastwest;rotatable=0;whiteSpace=wrap;html=1;" parent="jauZWxo5Ra5YD5kyznOw-22" vertex="1">
          <mxGeometry y="50" width="140" height="30" as="geometry" />
        </mxCell>
        <mxCell id="jauZWxo5Ra5YD5kyznOw-26" value="Feature" style="swimlane;fontStyle=0;childLayout=stackLayout;horizontal=1;startSize=30;horizontalStack=0;resizeParent=1;resizeParentMax=0;resizeLast=0;collapsible=1;marginBottom=0;whiteSpace=wrap;html=1;" parent="WIyWlLk6GJQsqaUBKTNV-1" vertex="1">
          <mxGeometry x="-770" y="10" width="160" height="100" as="geometry" />
        </mxCell>
        <mxCell id="jauZWxo5Ra5YD5kyznOw-28" value="PK TipoFeature : String" style="text;strokeColor=none;fillColor=none;align=left;verticalAlign=middle;spacingLeft=4;spacingRight=4;overflow=hidden;points=[[0,0.5],[1,0.5]];portConstraint=eastwest;rotatable=0;whiteSpace=wrap;html=1;" parent="jauZWxo5Ra5YD5kyznOw-26" vertex="1">
          <mxGeometry y="30" width="160" height="30" as="geometry" />
        </mxCell>
        <mxCell id="jauZWxo5Ra5YD5kyznOw-27" value="Descrizione : String" style="text;strokeColor=none;fillColor=none;align=left;verticalAlign=middle;spacingLeft=4;spacingRight=4;overflow=hidden;points=[[0,0.5],[1,0.5]];portConstraint=eastwest;rotatable=0;whiteSpace=wrap;html=1;" parent="jauZWxo5Ra5YD5kyznOw-26" vertex="1">
          <mxGeometry y="60" width="160" height="40" as="geometry" />
        </mxCell>
        <mxCell id="jauZWxo5Ra5YD5kyznOw-30" value="Nazionalità" style="swimlane;fontStyle=0;childLayout=stackLayout;horizontal=1;startSize=30;horizontalStack=0;resizeParent=1;resizeParentMax=0;resizeLast=0;collapsible=1;marginBottom=0;whiteSpace=wrap;html=1;" parent="WIyWlLk6GJQsqaUBKTNV-1" vertex="1">
          <mxGeometry x="-430" y="160" width="140" height="90" as="geometry" />
        </mxCell>
        <mxCell id="jauZWxo5Ra5YD5kyznOw-31" value="PK Nome : String" style="text;strokeColor=none;fillColor=none;align=left;verticalAlign=middle;spacingLeft=4;spacingRight=4;overflow=hidden;points=[[0,0.5],[1,0.5]];portConstraint=eastwest;rotatable=0;whiteSpace=wrap;html=1;" parent="jauZWxo5Ra5YD5kyznOw-30" vertex="1">
          <mxGeometry y="30" width="140" height="30" as="geometry" />
        </mxCell>
        <mxCell id="jauZWxo5Ra5YD5kyznOw-32" value="Descrizione : String" style="text;strokeColor=none;fillColor=none;align=left;verticalAlign=middle;spacingLeft=4;spacingRight=4;overflow=hidden;points=[[0,0.5],[1,0.5]];portConstraint=eastwest;rotatable=0;whiteSpace=wrap;html=1;" parent="jauZWxo5Ra5YD5kyznOw-30" vertex="1">
          <mxGeometry y="60" width="140" height="30" as="geometry" />
        </mxCell>
        <mxCell id="jauZWxo5Ra5YD5kyznOw-36" value="Ha" style="swimlane;fontStyle=0;childLayout=stackLayout;horizontal=1;startSize=30;horizontalStack=0;resizeParent=1;resizeParentMax=0;resizeLast=0;collapsible=1;marginBottom=0;whiteSpace=wrap;html=1;" parent="WIyWlLk6GJQsqaUBKTNV-1" vertex="1">
          <mxGeometry x="-520" y="-40" width="130" height="60" as="geometry" />
        </mxCell>
        <mxCell id="hcVvtSX-rFKX0n9vNCwV-0" value="Amministratore" style="swimlane;fontStyle=0;childLayout=stackLayout;horizontal=1;startSize=30;horizontalStack=0;resizeParent=1;resizeParentMax=0;resizeLast=0;collapsible=1;marginBottom=0;whiteSpace=wrap;html=1;" parent="WIyWlLk6GJQsqaUBKTNV-1" vertex="1">
          <mxGeometry x="-145" y="-260" width="140" height="90" as="geometry" />
        </mxCell>
        <mxCell id="hcVvtSX-rFKX0n9vNCwV-1" value="PK Username : String" style="text;strokeColor=none;fillColor=none;align=left;verticalAlign=middle;spacingLeft=4;spacingRight=4;overflow=hidden;points=[[0,0.5],[1,0.5]];portConstraint=eastwest;rotatable=0;whiteSpace=wrap;html=1;" parent="hcVvtSX-rFKX0n9vNCwV-0" vertex="1">
          <mxGeometry y="30" width="140" height="30" as="geometry" />
        </mxCell>
        <mxCell id="hcVvtSX-rFKX0n9vNCwV-2" value="Password : String" style="text;strokeColor=none;fillColor=none;align=left;verticalAlign=middle;spacingLeft=4;spacingRight=4;overflow=hidden;points=[[0,0.5],[1,0.5]];portConstraint=eastwest;rotatable=0;whiteSpace=wrap;html=1;" parent="hcVvtSX-rFKX0n9vNCwV-0" vertex="1">
          <mxGeometry y="60" width="140" height="30" as="geometry" />
        </mxCell>
        <mxCell id="hcVvtSX-rFKX0n9vNCwV-12" value="" style="endArrow=none;html=1;rounded=0;exitX=0.479;exitY=1.163;exitDx=0;exitDy=0;exitPerimeter=0;entryX=0.5;entryY=0;entryDx=0;entryDy=0;" parent="WIyWlLk6GJQsqaUBKTNV-1" source="hcVvtSX-rFKX0n9vNCwV-2" target="EM0cH5G3586m-RhXcjUr-0" edge="1">
          <mxGeometry width="50" height="50" relative="1" as="geometry">
            <mxPoint x="-142" y="90" as="sourcePoint" />
            <mxPoint x="-560" y="90" as="targetPoint" />
          </mxGeometry>
        </mxCell>
        <mxCell id="hcVvtSX-rFKX0n9vNCwV-15" value="&lt;font style=&quot;font-size: 14px;&quot;&gt;*&lt;/font&gt;" style="edgeLabel;html=1;align=center;verticalAlign=middle;resizable=0;points=[];" parent="hcVvtSX-rFKX0n9vNCwV-12" vertex="1" connectable="0">
          <mxGeometry x="-0.872" y="1" relative="1" as="geometry">
            <mxPoint as="offset" />
          </mxGeometry>
        </mxCell>
        <mxCell id="hcVvtSX-rFKX0n9vNCwV-16" value="&lt;font style=&quot;font-size: 14px;&quot;&gt;*&lt;/font&gt;" style="edgeLabel;html=1;align=center;verticalAlign=middle;resizable=0;points=[];" parent="hcVvtSX-rFKX0n9vNCwV-12" vertex="1" connectable="0">
          <mxGeometry x="0.8285" y="1" relative="1" as="geometry">
            <mxPoint as="offset" />
          </mxGeometry>
        </mxCell>
        <mxCell id="hcVvtSX-rFKX0n9vNCwV-17" value="Gestisce" style="edgeLabel;html=1;align=center;verticalAlign=middle;resizable=0;points=[];" parent="hcVvtSX-rFKX0n9vNCwV-12" vertex="1" connectable="0">
          <mxGeometry x="-0.0045" y="3" relative="1" as="geometry">
            <mxPoint as="offset" />
          </mxGeometry>
        </mxCell>
        <mxCell id="0oiI7NU0yHvSQ_45RacB-5" value="" style="endArrow=none;html=1;rounded=0;exitX=0.607;exitY=1.22;exitDx=0;exitDy=0;exitPerimeter=0;" parent="WIyWlLk6GJQsqaUBKTNV-1" source="jauZWxo5Ra5YD5kyznOw-23" edge="1">
          <mxGeometry width="50" height="50" relative="1" as="geometry">
            <mxPoint x="-200" y="90" as="sourcePoint" />
            <mxPoint x="-150" y="40" as="targetPoint" />
          </mxGeometry>
        </mxCell>
        <mxCell id="gGOtpuCGlHXrwMCYV4UZ-0" value="1...*" style="edgeLabel;html=1;align=center;verticalAlign=middle;resizable=0;points=[];" parent="0oiI7NU0yHvSQ_45RacB-5" vertex="1" connectable="0">
          <mxGeometry x="-0.7772" relative="1" as="geometry">
            <mxPoint as="offset" />
          </mxGeometry>
        </mxCell>
        <mxCell id="gGOtpuCGlHXrwMCYV4UZ-1" value="1...*" style="edgeLabel;html=1;align=center;verticalAlign=middle;resizable=0;points=[];" parent="0oiI7NU0yHvSQ_45RacB-5" vertex="1" connectable="0">
          <mxGeometry x="0.7432" y="-4" relative="1" as="geometry">
            <mxPoint as="offset" />
          </mxGeometry>
        </mxCell>
        <mxCell id="0oiI7NU0yHvSQ_45RacB-6" value="" style="endArrow=none;html=1;rounded=0;exitX=1.034;exitY=0.335;exitDx=0;exitDy=0;exitPerimeter=0;entryX=-0.036;entryY=-0.247;entryDx=0;entryDy=0;entryPerimeter=0;" parent="WIyWlLk6GJQsqaUBKTNV-1" source="jauZWxo5Ra5YD5kyznOw-27" target="EM0cH5G3586m-RhXcjUr-3" edge="1">
          <mxGeometry width="50" height="50" relative="1" as="geometry">
            <mxPoint x="-200" y="90" as="sourcePoint" />
            <mxPoint x="-150" y="40" as="targetPoint" />
          </mxGeometry>
        </mxCell>
        <mxCell id="gGOtpuCGlHXrwMCYV4UZ-2" value="1...*" style="edgeLabel;html=1;align=center;verticalAlign=middle;resizable=0;points=[];" parent="0oiI7NU0yHvSQ_45RacB-6" vertex="1" connectable="0">
          <mxGeometry x="-0.9271" y="2" relative="1" as="geometry">
            <mxPoint as="offset" />
          </mxGeometry>
        </mxCell>
        <mxCell id="gGOtpuCGlHXrwMCYV4UZ-3" value="1...*" style="edgeLabel;html=1;align=center;verticalAlign=middle;resizable=0;points=[];" parent="0oiI7NU0yHvSQ_45RacB-6" vertex="1" connectable="0">
          <mxGeometry x="0.8539" relative="1" as="geometry">
            <mxPoint as="offset" />
          </mxGeometry>
        </mxCell>
        <mxCell id="0oiI7NU0yHvSQ_45RacB-7" value="" style="endArrow=none;dashed=1;html=1;dashPattern=1 3;strokeWidth=2;rounded=0;" parent="WIyWlLk6GJQsqaUBKTNV-1" edge="1">
          <mxGeometry width="50" height="50" relative="1" as="geometry">
            <mxPoint x="-390" y="-1" as="sourcePoint" />
            <mxPoint x="-200" y="-1" as="targetPoint" />
          </mxGeometry>
        </mxCell>
        <mxCell id="0oiI7NU0yHvSQ_45RacB-8" value="" style="endArrow=none;dashed=1;html=1;dashPattern=1 3;strokeWidth=2;rounded=0;" parent="WIyWlLk6GJQsqaUBKTNV-1" edge="1">
          <mxGeometry width="50" height="50" relative="1" as="geometry">
            <mxPoint x="-570" y="160" as="sourcePoint" />
            <mxPoint x="-570" y="80" as="targetPoint" />
          </mxGeometry>
        </mxCell>
        <mxCell id="0oiI7NU0yHvSQ_45RacB-9" value="Possiede" style="swimlane;fontStyle=0;childLayout=stackLayout;horizontal=1;startSize=30;horizontalStack=0;resizeParent=1;resizeParentMax=0;resizeLast=0;collapsible=1;marginBottom=0;whiteSpace=wrap;html=1;" parent="WIyWlLk6GJQsqaUBKTNV-1" vertex="1">
          <mxGeometry x="-640" y="160" width="130" height="60" as="geometry" />
        </mxCell>
        <mxCell id="0oiI7NU0yHvSQ_45RacB-10" value="" style="endArrow=none;html=1;rounded=0;entryX=-0.004;entryY=0.127;entryDx=0;entryDy=0;entryPerimeter=0;" parent="WIyWlLk6GJQsqaUBKTNV-1" target="EM0cH5G3586m-RhXcjUr-68" edge="1">
          <mxGeometry width="50" height="50" relative="1" as="geometry">
            <mxPoint x="-290" y="200" as="sourcePoint" />
            <mxPoint x="-240" y="150" as="targetPoint" />
          </mxGeometry>
        </mxCell>
        <mxCell id="gGOtpuCGlHXrwMCYV4UZ-4" value="1...*" style="edgeLabel;html=1;align=center;verticalAlign=middle;resizable=0;points=[];" parent="0oiI7NU0yHvSQ_45RacB-10" vertex="1" connectable="0">
          <mxGeometry x="-0.8173" y="-3" relative="1" as="geometry">
            <mxPoint x="1" as="offset" />
          </mxGeometry>
        </mxCell>
        <mxCell id="gGOtpuCGlHXrwMCYV4UZ-5" value="1...*" style="edgeLabel;html=1;align=center;verticalAlign=middle;resizable=0;points=[];" parent="0oiI7NU0yHvSQ_45RacB-10" vertex="1" connectable="0">
          <mxGeometry x="0.7675" y="-2" relative="1" as="geometry">
            <mxPoint as="offset" />
          </mxGeometry>
        </mxCell>
        <mxCell id="0oiI7NU0yHvSQ_45RacB-11" value="" style="endArrow=none;dashed=1;html=1;dashPattern=1 3;strokeWidth=2;rounded=0;" parent="WIyWlLk6GJQsqaUBKTNV-1" edge="1">
          <mxGeometry width="50" height="50" relative="1" as="geometry">
            <mxPoint x="-223" y="280" as="sourcePoint" />
            <mxPoint x="-223" y="180" as="targetPoint" />
          </mxGeometry>
        </mxCell>
        <mxCell id="0oiI7NU0yHvSQ_45RacB-12" value="Appartiene" style="swimlane;fontStyle=0;childLayout=stackLayout;horizontal=1;startSize=30;horizontalStack=0;resizeParent=1;resizeParentMax=0;resizeLast=0;collapsible=1;marginBottom=0;whiteSpace=wrap;html=1;" parent="WIyWlLk6GJQsqaUBKTNV-1" vertex="1">
          <mxGeometry x="-285" y="280" width="130" height="60" as="geometry" />
        </mxCell>
        <mxCell id="0oiI7NU0yHvSQ_45RacB-13" value="" style="endArrow=none;html=1;rounded=0;entryX=0.508;entryY=1.245;entryDx=0;entryDy=0;entryPerimeter=0;exitX=0;exitY=0;exitDx=0;exitDy=0;" parent="WIyWlLk6GJQsqaUBKTNV-1" source="EM0cH5G3586m-RhXcjUr-20" target="jauZWxo5Ra5YD5kyznOw-32" edge="1">
          <mxGeometry width="50" height="50" relative="1" as="geometry">
            <mxPoint x="-414" y="385" as="sourcePoint" />
            <mxPoint x="-364" y="335" as="targetPoint" />
          </mxGeometry>
        </mxCell>
        <mxCell id="0oiI7NU0yHvSQ_45RacB-14" value="1...*" style="edgeLabel;html=1;align=center;verticalAlign=middle;resizable=0;points=[];" parent="0oiI7NU0yHvSQ_45RacB-13" vertex="1" connectable="0">
          <mxGeometry x="-0.9117" y="-2" relative="1" as="geometry">
            <mxPoint as="offset" />
          </mxGeometry>
        </mxCell>
        <mxCell id="0oiI7NU0yHvSQ_45RacB-15" value="1" style="edgeLabel;html=1;align=center;verticalAlign=middle;resizable=0;points=[];" parent="0oiI7NU0yHvSQ_45RacB-13" vertex="1" connectable="0">
          <mxGeometry x="0.8698" y="1" relative="1" as="geometry">
            <mxPoint as="offset" />
          </mxGeometry>
        </mxCell>
        <mxCell id="HmFmUtHPL6lCUHvImwCV-1" value="Appartiene" style="edgeLabel;html=1;align=center;verticalAlign=middle;resizable=0;points=[];" vertex="1" connectable="0" parent="0oiI7NU0yHvSQ_45RacB-13">
          <mxGeometry x="-0.0245" y="-3" relative="1" as="geometry">
            <mxPoint as="offset" />
          </mxGeometry>
        </mxCell>
        <mxCell id="0oiI7NU0yHvSQ_45RacB-18" value="" style="endArrow=none;html=1;rounded=0;exitX=-0.012;exitY=0.649;exitDx=0;exitDy=0;exitPerimeter=0;entryX=0.667;entryY=0.667;entryDx=0;entryDy=0;entryPerimeter=0;" parent="WIyWlLk6GJQsqaUBKTNV-1" source="jauZWxo5Ra5YD5kyznOw-3" target="0oiI7NU0yHvSQ_45RacB-21" edge="1">
          <mxGeometry width="50" height="50" relative="1" as="geometry">
            <mxPoint x="-163" y="840" as="sourcePoint" />
            <mxPoint x="-490" y="840" as="targetPoint" />
          </mxGeometry>
        </mxCell>
        <mxCell id="0oiI7NU0yHvSQ_45RacB-19" value="1" style="edgeLabel;html=1;align=center;verticalAlign=middle;resizable=0;points=[];" parent="0oiI7NU0yHvSQ_45RacB-18" vertex="1" connectable="0">
          <mxGeometry x="-0.9151" y="2" relative="1" as="geometry">
            <mxPoint as="offset" />
          </mxGeometry>
        </mxCell>
        <mxCell id="0oiI7NU0yHvSQ_45RacB-21" value="Ha" style="text;html=1;strokeColor=none;fillColor=none;align=center;verticalAlign=middle;whiteSpace=wrap;rounded=0;" parent="WIyWlLk6GJQsqaUBKTNV-1" vertex="1">
          <mxGeometry x="-530" y="820" width="60" height="30" as="geometry" />
        </mxCell>
        <mxCell id="0oiI7NU0yHvSQ_45RacB-22" value="" style="endArrow=none;html=1;rounded=0;entryX=0.224;entryY=1.211;entryDx=0;entryDy=0;entryPerimeter=0;" parent="WIyWlLk6GJQsqaUBKTNV-1" target="jauZWxo5Ra5YD5kyznOw-32" edge="1">
          <mxGeometry width="50" height="50" relative="1" as="geometry">
            <mxPoint x="-480" y="548" as="sourcePoint" />
            <mxPoint x="-430" y="498" as="targetPoint" />
          </mxGeometry>
        </mxCell>
        <mxCell id="0oiI7NU0yHvSQ_45RacB-23" value="1" style="edgeLabel;html=1;align=center;verticalAlign=middle;resizable=0;points=[];" parent="0oiI7NU0yHvSQ_45RacB-22" vertex="1" connectable="0">
          <mxGeometry x="0.8413" y="1" relative="1" as="geometry">
            <mxPoint as="offset" />
          </mxGeometry>
        </mxCell>
        <mxCell id="0oiI7NU0yHvSQ_45RacB-24" value="1...*&lt;br&gt;" style="edgeLabel;html=1;align=center;verticalAlign=middle;resizable=0;points=[];" parent="0oiI7NU0yHvSQ_45RacB-22" vertex="1" connectable="0">
          <mxGeometry x="-0.9032" y="2" relative="1" as="geometry">
            <mxPoint as="offset" />
          </mxGeometry>
        </mxCell>
        <mxCell id="HmFmUtHPL6lCUHvImwCV-0" value="Possiede" style="edgeLabel;html=1;align=center;verticalAlign=middle;resizable=0;points=[];" vertex="1" connectable="0" parent="0oiI7NU0yHvSQ_45RacB-22">
          <mxGeometry x="0.014" relative="1" as="geometry">
            <mxPoint x="-1" as="offset" />
          </mxGeometry>
        </mxCell>
      </root>
    </mxGraphModel>
  </diagram>
</mxfile>
